<?xml version="1.0" standalone="no"?>
<!DOCTYPE svg PUBLIC "-//W3C//DTD SVG 20010904//EN"
 "http://www.w3.org/TR/2001/REC-SVG-20010904/DTD/svg10.dtd">
<svg version="1.0" xmlns="http://www.w3.org/2000/svg"
 width="525.000000pt" height="328.000000pt" viewBox="0 0 525.000000 328.000000"
 preserveAspectRatio="xMidYMid meet">

<g transform="translate(0.000000,328.000000) scale(0.100000,-0.100000)"
fill="#000000" stroke="none">
<path d="M5000 3256 c0 -35 10 -56 26 -56 10 0 14 -12 14 -40 0 -33 3 -40 20
-40 17 0 20 -7 20 -40 0 -22 5 -40 10 -40 6 0 10 -18 10 -40 0 -33 4 -40 19
-40 24 0 31 -19 31 -86 0 -30 5 -54 10 -54 6 0 10 -9 10 -20 0 -11 7 -20 15
-20 12 0 15 -14 15 -70 0 -63 2 -70 20 -70 17 0 20 -8 23 -82 1 -46 4 98 5
320 l2 402 -125 0 -125 0 0 -24z"/>
<path d="M3334 2757 c-11 -30 -9 -140 3 -144 14 -5 46 95 41 129 -3 26 -35 37
-44 15z"/>
<path d="M3275 2690 c-9 -16 -13 -30 -11 -30 3 0 12 14 21 30 9 17 13 30 11
30 -3 0 -12 -13 -21 -30z"/>
<path d="M3303 2671 c-6 -9 -23 -41 -38 -69 -15 -29 -31 -49 -36 -46 -5 3 -9
-2 -9 -10 0 -9 5 -16 12 -16 6 0 3 -8 -7 -20 -10 -11 -22 -17 -27 -14 -5 3
-15 -2 -23 -12 -11 -16 -10 -20 4 -31 9 -7 21 -12 26 -12 6 0 2 4 -7 10 -30
17 -20 28 12 13 18 -10 27 -20 23 -29 -3 -8 0 -15 6 -15 6 0 11 -9 11 -21 0
-11 5 -17 10 -14 14 9 24 -23 13 -38 -6 -6 -13 -28 -16 -47 l-6 -35 15 28 c16
30 31 34 58 14 16 -12 16 -14 2 -26 -9 -8 -16 -22 -16 -33 0 -15 -4 -18 -17
-13 -10 4 -23 8 -30 9 -7 1 -16 5 -19 9 -10 10 -24 9 -24 -2 0 -11 90 -43 90
-33 0 4 4 2 8 -4 6 -10 172 -84 188 -84 4 0 1 7 -6 15 -10 12 -10 15 0 15 6 0
14 -9 17 -19 4 -14 80 -50 306 -141 440 -179 467 -191 467 -204 1 -6 14 21 31
59 16 39 36 84 44 100 82 179 83 188 18 217 -27 11 -50 22 -52 24 -8 7 22 33
32 27 6 -3 7 -1 3 5 -4 7 2 33 13 58 22 48 27 94 12 94 -16 0 -27 -25 -25 -55
2 -41 -77 -185 -87 -158 -5 13 -9 6 -14 -24 -5 -26 -13 -43 -21 -43 -18 0 -18
0 6 61 12 28 19 53 18 54 -8 7 -197 83 -220 89 -29 7 -39 36 -13 36 8 0 22 17
30 37 19 46 31 123 19 123 -21 -1 -32 -17 -32 -50 1 -43 -80 -189 -93 -168 -6
8 -9 0 -9 -22 0 -24 -6 -39 -20 -48 -19 -11 -20 -10 -16 12 2 13 13 45 24 69
l20 45 -184 73 c-115 46 -184 79 -184 87 0 10 7 12 23 8 21 -5 25 0 40 48 26
82 21 114 -16 100 -9 -3 -15 -17 -15 -33 1 -37 -82 -187 -94 -169 -6 9 -8 4
-7 -17 2 -47 0 -57 -11 -50 -5 3 -10 0 -10 -7 -1 -8 -4 -7 -10 4 -7 11 -4 30
10 64 11 26 19 51 18 56 -2 6 -53 29 -113 53 -60 24 -111 48 -113 54 -2 5 4
24 13 41 18 34 16 50 -2 21z m119 -394 c13 -1 16 -7 12 -24 -7 -25 5 -30 24
-11 19 19 26 1 12 -32 -16 -39 -25 -44 -41 -23 -10 12 -10 14 -1 9 6 -4 12 -3
12 2 0 6 -7 12 -15 16 -10 4 -15 -1 -15 -14 0 -26 -8 -25 -53 5 -56 39 -44 93
18 80 17 -3 38 -7 47 -8z m208 -167 c0 -5 -2 -10 -4 -10 -3 0 -8 5 -11 10 -3
6 -1 10 4 10 6 0 11 -4 11 -10z m395 -87 c16 -16 16 -18 -2 -33 -11 -8 -18
-21 -15 -29 3 -10 -2 -11 -19 -6 -39 12 -42 21 -10 35 31 12 45 35 16 24 -15
-6 -21 7 -8 19 10 11 20 8 38 -10z m68 -34 c10 -13 17 -16 22 -10 4 8 12 8 26
1 23 -13 25 -38 3 -47 -8 -3 -13 -12 -9 -20 4 -12 0 -14 -17 -9 -13 3 -26 6
-30 6 -20 0 -5 19 22 29 17 5 30 14 30 20 0 13 -43 1 -53 -16 -11 -18 -54 -16
-61 3 -8 20 19 64 39 64 7 0 20 -9 28 -21z m132 -56 c-4 -10 -8 -25 -8 -33 0
-27 -37 -42 -37 -15 0 8 -7 15 -15 15 -24 0 -17 18 13 34 38 21 56 20 47 -1z"/>
<path d="M3346 2254 c-4 -11 1 -18 15 -21 12 -3 18 -11 15 -19 -10 -26 3 -14
20 17 8 17 11 28 6 25 -6 -4 -13 -2 -17 4 -9 15 -32 12 -39 -6z m44 -16 c0 -6
-6 -5 -15 2 -8 7 -15 14 -15 16 0 2 7 1 15 -2 8 -4 15 -11 15 -16z"/>
<path d="M4053 1975 c-8 -22 6 -33 17 -15 13 20 12 30 0 30 -6 0 -13 -7 -17
-15z"/>
<path d="M3153 2633 c-7 -2 -13 -12 -13 -21 0 -12 3 -13 12 -4 16 16 28 15 28
-3 0 -8 4 -15 10 -15 5 0 7 -8 3 -17 -4 -13 -3 -15 5 -8 17 16 26 65 12 65 -6
0 -8 -5 -4 -12 4 -7 -2 -5 -13 5 -21 18 -21 18 -40 10z"/>
<path d="M3570 2569 c-12 -23 -20 -43 -18 -45 3 -2 14 17 26 41 27 56 20 60
-8 4z"/>
<path d="M3103 2557 c-7 -16 -7 -25 1 -33 9 -8 12 -3 12 22 0 19 -1 34 -1 34
-1 0 -6 -10 -12 -23z"/>
<path d="M3160 2509 c0 -5 5 -7 10 -4 6 3 10 8 10 11 0 2 -4 4 -10 4 -5 0 -10
-5 -10 -11z"/>
<path d="M3056 2463 c-6 -14 -5 -15 5 -6 7 7 10 15 7 18 -3 3 -9 -2 -12 -12z"/>
<path d="M3995 2386 c-34 -77 -31 -85 5 -11 16 32 27 61 25 64 -3 2 -16 -21
-30 -53z"/>
<path d="M3026 2413 c-6 -14 -5 -15 5 -6 7 7 10 15 7 18 -3 3 -9 -2 -12 -12z"/>
<path d="M3180 2388 c0 -9 -4 -20 -10 -23 -6 -3 -7 1 -4 9 4 10 1 16 -9 16
-10 0 -13 -8 -9 -25 4 -24 6 -25 22 -10 22 20 35 5 24 -28 -6 -21 -6 -21 13
-4 11 9 25 17 31 17 7 0 12 4 12 8 0 5 -10 8 -22 8 -14 -1 -27 8 -35 24 -9 17
-13 20 -13 8z"/>
<path d="M3006 2375 c-3 -8 -1 -15 3 -15 5 0 11 7 15 15 3 8 1 15 -3 15 -5 0
-11 -7 -15 -15z"/>
<path d="M3030 2350 c0 -7 -8 -9 -20 -5 -34 11 -22 -4 18 -21 20 -9 42 -17 47
-18 6 -2 26 -10 45 -19 35 -15 35 -15 42 11 9 31 2 43 -9 16 -5 -10 -14 -20
-22 -22 -10 -2 -12 4 -7 25 6 26 5 27 -8 9 -8 -10 -20 -15 -26 -11 -8 5 -6 13
7 27 18 20 18 21 -4 9 -12 -6 -25 -15 -28 -21 -3 -5 -13 -6 -21 -3 -11 4 -12
8 -4 13 9 5 9 9 1 14 -6 4 -11 2 -11 -4z"/>
<path d="M4332 2308 c-12 -16 -43 -90 -39 -94 2 -2 15 21 30 51 26 54 29 67 9
43z"/>
<path d="M4185 2300 c-3 -6 6 -15 20 -20 33 -13 38 -13 30 0 -3 6 -15 10 -26
10 -11 0 -17 5 -14 10 3 6 4 10 1 10 -3 0 -8 -5 -11 -10z"/>
<path d="M3186 2280 c-14 -4 -16 -9 -8 -14 7 -4 12 -4 12 1 0 4 4 3 8 -3 5 -9
10 -8 19 1 15 17 -3 25 -31 15z"/>
<path d="M4260 2260 c19 -13 30 -13 30 0 0 6 -10 10 -22 10 -19 0 -20 -2 -8
-10z"/>
<path d="M4450 2176 c0 -1 5 -17 11 -34 10 -29 2 -52 -104 -294 -63 -145 -177
-405 -252 -578 -76 -173 -150 -333 -166 -356 -71 -104 -186 -166 -320 -172
-102 -5 -152 7 -295 74 -54 25 -112 52 -129 59 -276 126 -442 203 -492 230
-67 35 -85 38 -30 5 17 -11 28 -20 23 -20 -5 0 15 -17 45 -39 77 -55 660 -344
779 -385 116 -41 319 -65 376 -44 18 6 34 16 34 20 0 4 11 8 25 8 14 0 25 5
25 10 0 6 6 10 14 10 18 0 86 75 86 95 0 8 4 15 8 15 5 0 21 26 36 58 14 31
40 77 56 102 38 60 58 94 91 160 15 30 30 53 33 50 3 -3 15 12 26 33 78 145
126 226 149 248 32 32 48 55 62 92 6 15 15 27 19 27 5 0 19 21 31 48 23 46 49
81 49 65 1 -14 40 42 40 57 0 8 11 24 25 34 14 10 25 26 25 35 0 10 5 22 10
27 15 15 13 132 -2 175 -9 22 -18 34 -27 31 -8 -3 -11 0 -7 6 10 16 -31 50
-107 87 -37 19 -77 41 -89 50 -20 13 -58 21 -58 11z"/>
<path d="M3156 2154 c-4 -9 -4 -19 -1 -22 3 -3 5 1 5 9 1 10 4 9 11 -4 6 -9
14 -15 20 -12 5 4 9 1 9 -5 0 -16 43 -29 58 -18 6 6 12 15 12 21 0 6 -3 7 -7
4 -3 -4 -11 0 -18 9 -6 9 -23 17 -38 17 -15 1 -27 5 -27 10 0 14 -18 7 -24 -9z
m68 -18 c8 3 16 -4 19 -15 4 -15 1 -18 -12 -13 -18 6 -31 22 -30 37 0 6 3 5 5
-2 3 -7 11 -10 18 -7z"/>
<path d="M3280 2105 c-7 -9 -10 -18 -7 -21 3 -3 10 4 17 15 13 25 8 27 -10 6z"/>
<path d="M3343 2094 c3 -4 2 -16 -4 -28 -10 -20 -10 -20 5 -2 19 24 20 36 4
36 -6 0 -8 -3 -5 -6z"/>
<path d="M3370 2081 c0 -5 -3 -16 -6 -25 -3 -9 -2 -16 3 -16 5 0 10 11 11 25
1 14 0 25 -3 25 -3 0 -5 -4 -5 -9z"/>
<path d="M3393 2057 c-6 -10 16 -37 31 -37 6 0 4 5 -4 10 -11 7 -11 10 -2 10
8 0 10 5 6 12 -5 8 -2 9 10 5 9 -4 15 -3 11 2 -7 12 -44 10 -52 -2z"/>
<path d="M3490 2014 c0 -14 4 -23 9 -20 5 3 7 15 4 26 -7 28 -13 25 -13 -6z"/>
<path d="M3520 2030 c-6 -19 -5 -50 1 -50 13 0 17 14 8 35 -4 11 -8 18 -9 15z"/>
<path d="M3543 1993 c1 -14 9 -28 17 -30 13 -4 13 -3 0 6 -13 10 -13 13 3 25
16 12 16 14 1 20 -23 9 -23 9 -21 -21z"/>
<path d="M3590 1980 c-13 -24 -13 -30 0 -30 6 0 9 3 9 8 -3 20 2 32 12 27 6
-4 8 -14 5 -22 -3 -8 -1 -11 4 -8 15 9 12 32 -5 39 -8 3 -19 -3 -25 -14z"/>
<path d="M2925 1960 c-4 -13 -12 -19 -21 -16 -9 3 -12 1 -9 -4 11 -18 32 -11
38 12 8 29 1 36 -8 8z"/>
<path d="M3690 1951 c0 -5 -3 -18 -6 -28 -3 -12 -1 -10 8 5 17 28 32 17 16
-12 -10 -19 -10 -20 5 -7 16 13 21 9 18 -14 -1 -5 6 -1 15 10 16 20 16 20 10
-1 -4 -14 -2 -24 7 -27 18 -7 37 11 36 33 0 9 -4 6 -10 -8 -5 -13 -13 -20 -19
-17 -6 4 -8 11 -5 16 4 5 1 17 -4 26 -6 10 -11 12 -11 6 0 -18 -20 -16 -20 1
0 8 -7 17 -16 20 -21 8 -24 8 -24 -3z"/>
<path d="M3082 1888 c-7 -9 -6 -17 4 -26 11 -10 15 -8 24 7 5 11 10 22 10 25
0 11 -28 6 -38 -6z m28 -2 c0 -3 -4 -8 -10 -11 -5 -3 -10 -1 -10 4 0 6 5 11
10 11 6 0 10 -2 10 -4z"/>
<path d="M3859 1869 c-6 -11 -8 -23 -5 -26 3 -3 8 2 12 11 7 18 34 22 34 5 0
-5 -4 -7 -10 -4 -6 3 -7 -1 -4 -9 3 -9 10 -13 15 -10 5 3 12 -2 15 -10 9 -23
31 -20 37 5 3 12 3 18 0 15 -3 -3 -11 0 -17 7 -6 7 -23 18 -38 25 -24 10 -29
9 -39 -9z m75 -25 c9 -24 2 -26 -12 -4 -7 11 -8 20 -3 20 5 0 12 -7 15 -16z"/>
<path d="M2826 1843 c-6 -14 -5 -15 5 -6 7 7 10 15 7 18 -3 3 -9 -2 -12 -12z"/>
<path d="M2843 1825 c-3 -9 -3 -18 -1 -21 3 -3 8 4 11 16 6 23 -1 27 -10 5z"/>
<path d="M3254 1828 c-4 -6 -2 -14 4 -16 7 -2 12 -8 12 -14 0 -6 -7 -7 -16 -4
-8 3 -12 2 -9 -4 12 -19 38 -11 32 10 -4 14 0 20 11 20 15 0 15 2 2 10 -20 13
-27 12 -36 -2z"/>
<path d="M4038 1798 c8 -9 10 -23 6 -30 -4 -7 -4 -10 0 -6 5 4 19 3 32 -2 15
-6 24 -6 24 0 0 6 -9 10 -21 10 -16 0 -19 5 -15 23 3 12 3 16 0 9 -5 -10 -9
-10 -22 0 -15 12 -16 11 -4 -4z"/>
<path d="M3013 1774 c3 -4 2 -15 -4 -25 -6 -11 -6 -19 0 -19 9 0 21 23 21 41
0 5 -5 9 -12 9 -6 0 -8 -3 -5 -6z"/>
<path d="M4126 1765 c-9 -26 -7 -32 5 -12 6 10 9 21 6 23 -2 3 -7 -2 -11 -11z"/>
<path d="M3043 1758 c0 -7 -4 -22 -8 -33 -7 -20 -6 -20 9 -1 17 21 21 46 8 46
-5 0 -9 -6 -9 -12z"/>
<path d="M3410 1755 c-15 -18 -6 -45 15 -45 18 0 20 21 3 39 -11 11 -10 13 5
8 11 -4 16 -3 12 3 -9 14 -21 12 -35 -5z m20 -25 c0 -5 -2 -10 -4 -10 -3 0 -8
5 -11 10 -3 6 -1 10 4 10 6 0 11 -4 11 -10z"/>
<path d="M3855 1740 c3 -5 1 -19 -5 -30 -6 -11 -7 -20 -2 -20 11 0 32 46 25
54 -10 10 -25 7 -18 -4z"/>
<path d="M2756 1715 c-9 -26 -7 -32 5 -12 6 10 9 21 6 23 -2 3 -7 -2 -11 -11z"/>
<path d="M2785 1688 l-20 -21 23 12 c12 6 22 16 22 21 0 13 -2 12 -25 -12z"/>
<path d="M3173 1704 c3 -4 2 -15 -4 -25 -6 -11 -6 -19 0 -19 9 0 21 23 21 41
0 5 -5 9 -12 9 -6 0 -8 -3 -5 -6z"/>
<path d="M3215 1681 c19 -8 19 -8 -2 -15 -23 -7 -32 -26 -12 -26 14 0 39 25
39 39 0 6 -10 11 -22 10 -22 0 -22 -1 -3 -8z"/>
<path d="M3620 1680 c12 -7 11 -12 -5 -31 l-20 -22 22 12 c12 6 25 16 29 22 7
11 -12 29 -31 29 -5 0 -3 -4 5 -10z"/>
<path d="M4024 1669 c-5 -8 -3 -9 6 -4 10 6 12 4 7 -8 -3 -10 -2 -17 3 -17 16
0 20 18 6 29 -11 9 -16 9 -22 0z"/>
<path d="M2930 1641 c0 -5 -3 -18 -6 -28 -5 -16 -4 -16 10 1 18 23 20 36 6 36
-5 0 -10 -4 -10 -9z"/>
<path d="M3333 1634 c3 -4 2 -15 -4 -25 -6 -11 -6 -19 0 -19 9 0 21 23 21 41
0 5 -5 9 -12 9 -6 0 -8 -3 -5 -6z"/>
<path d="M4005 1630 c3 -5 11 -10 16 -10 6 0 7 5 4 10 -3 6 -11 10 -16 10 -6
0 -7 -4 -4 -10z"/>
<path d="M2953 1611 c-13 -21 -8 -31 18 -31 9 0 19 9 22 19 9 35 -20 44 -40
12z m29 2 c-6 -2 -10 -9 -6 -14 3 -5 0 -9 -5 -9 -12 0 -14 13 -4 23 3 4 11 7
17 6 6 0 5 -3 -2 -6z"/>
<path d="M3370 1621 c0 -5 6 -12 13 -14 9 -4 9 -6 -1 -6 -7 -1 -10 -6 -6 -13
5 -8 2 -9 -9 -5 -10 3 -17 2 -17 -3 0 -6 8 -10 19 -10 18 0 35 35 25 52 -7 11
-24 10 -24 -1z"/>
<path d="M3776 1595 c-14 -21 -14 -24 0 -36 14 -11 18 -10 30 6 18 24 18 41 0
48 -8 3 -21 -4 -30 -18z"/>
<path d="M3098 1545 c-4 -20 -3 -23 8 -14 16 13 19 39 5 39 -5 0 -11 -11 -13
-25z"/>
<path d="M3523 1529 c-6 -16 -8 -29 -4 -29 11 0 31 49 23 54 -5 3 -13 -8 -19
-25z"/>
<path d="M3130 1541 c0 -5 -3 -16 -6 -25 -4 -11 0 -16 14 -16 20 0 36 25 26
41 -7 12 -34 12 -34 0z"/>
<path d="M2865 1524 c9 -9 19 -13 23 -10 3 4 0 11 -8 16 -24 15 -33 11 -15 -6z"/>
<path d="M3957 1533 c-4 -3 -7 -11 -7 -17 0 -6 4 -4 10 4 5 8 12 12 15 9 9 -9
-6 -40 -16 -33 -5 3 -9 0 -9 -6 0 -25 35 -4 38 23 3 26 -14 37 -31 20z"/>
<path d="M3557 1519 c-18 -10 -18 -12 3 -26 24 -17 25 -17 34 15 8 25 -6 29
-37 11z m23 -9 c0 -5 -5 -10 -11 -10 -5 0 -7 5 -4 10 3 6 8 10 11 10 2 0 4 -4
4 -10z"/>
<path d="M2677 1513 c-4 -3 -7 -11 -7 -17 0 -6 5 -5 12 2 6 6 9 14 7 17 -3 3
-9 2 -12 -2z"/>
<path d="M2900 1511 c0 -5 -3 -16 -6 -25 -4 -12 0 -16 15 -16 12 0 21 4 21 10
0 5 -7 6 -17 3 -11 -4 -14 -3 -9 5 4 7 15 12 24 12 15 0 15 2 2 10 -19 12 -30
13 -30 1z"/>
<path d="M2845 1500 c3 -5 11 -10 16 -10 6 0 7 5 4 10 -3 6 -11 10 -16 10 -6
0 -7 -4 -4 -10z"/>
<path d="M3250 1489 c0 -5 5 -7 10 -4 6 3 10 2 10 -3 0 -5 -10 -12 -22 -16
-19 -5 -21 -8 -8 -16 19 -12 33 -13 26 -1 -3 5 1 12 9 15 9 3 15 1 14 -7 -5
-39 17 -51 41 -22 15 18 -3 47 -24 39 -8 -3 -16 2 -19 10 -7 18 -37 22 -37 5z
m70 -44 c0 -8 -4 -15 -10 -15 -5 0 -10 7 -10 15 0 8 5 15 10 15 6 0 10 -7 10
-15z"/>
<path d="M3700 1480 c0 -8 -3 -26 -6 -40 -5 -24 -4 -24 11 4 12 20 14 31 6 39
-8 8 -11 7 -11 -3z"/>
<path d="M3735 1459 c-10 -15 -2 -19 24 -12 17 4 19 8 9 14 -18 12 -26 11 -33
-2z"/>
<path d="M3034 1443 c19 -5 18 -6 -3 -18 -20 -10 -21 -13 -7 -18 10 -4 15 -3
11 3 -3 6 1 10 9 10 9 0 16 7 16 15 0 9 -9 15 -22 14 -20 -1 -21 -2 -4 -6z"/>
<path d="M3750 1430 c0 -7 -7 -10 -15 -6 -8 3 -15 1 -15 -4 0 -13 37 -13 45
-1 3 5 1 12 -5 16 -5 3 -10 1 -10 -5z"/>
<path d="M3066 1414 c-7 -19 1 -34 18 -34 14 0 28 35 18 44 -11 11 -30 6 -36
-10z"/>
<path d="M3876 1384 c-9 -35 -2 -40 12 -9 6 13 7 27 3 30 -5 2 -12 -7 -15 -21z"/>
<path d="M3470 1390 c12 -7 10 -11 -10 -18 l-24 -9 23 -13 c13 -6 21 -7 17 -2
-4 6 1 15 10 20 20 11 10 32 -14 32 -14 0 -15 -2 -2 -10z"/>
<path d="M3503 1360 c-13 -34 1 -41 18 -9 6 12 7 25 2 30 -5 5 -14 -4 -20 -21z"/>
<path d="M3907 1383 c-11 -10 -8 -41 4 -49 6 -3 16 -1 22 6 9 9 7 15 -8 27
-20 15 -20 15 3 10 12 -3 20 -1 16 4 -6 11 -28 12 -37 2z m23 -33 c0 -5 -4
-10 -10 -10 -5 0 -10 5 -10 10 0 6 5 10 10 10 6 0 10 -4 10 -10z"/>
<path d="M3200 1360 c12 -8 11 -11 -8 -16 -18 -5 -20 -9 -10 -15 17 -11 31
-11 24 0 -3 5 1 12 10 15 19 7 9 26 -14 26 -15 0 -15 -2 -2 -10z"/>
<path d="M3243 1343 c4 -3 2 -12 -4 -20 -7 -8 -8 -13 -1 -13 5 0 15 6 21 13
11 14 5 27 -12 27 -6 0 -7 -3 -4 -7z"/>
<path d="M3635 1320 c18 -7 18 -9 -10 -19 -23 -10 -26 -14 -15 -21 17 -11 37
-13 27 -3 -4 3 1 11 10 18 19 14 10 35 -15 34 -14 0 -13 -2 3 -9z"/>
<path d="M3670 1299 c0 -5 5 -7 10 -4 6 3 10 2 10 -4 0 -5 -10 -13 -21 -16
-17 -6 -19 -9 -8 -16 16 -10 35 -12 26 -2 -4 3 1 11 10 18 9 7 13 17 9 23 -9
15 -36 16 -36 1z"/>
<path d="M2800 1290 c0 -5 9 -11 19 -15 11 -3 35 -20 53 -37 41 -38 85 -67
186 -118 79 -41 113 -61 122 -70 7 -7 53 -27 64 -28 5 0 12 -4 15 -9 3 -5 54
-33 113 -63 58 -30 105 -56 104 -58 -3 -3 -71 27 -226 100 -52 25 -176 82
-275 128 -99 45 -188 87 -199 92 -12 6 -16 7 -12 0 3 -5 61 -36 128 -69 187
-92 222 -108 231 -105 4 1 7 -2 7 -8 0 -5 7 -10 15 -10 8 0 15 -3 15 -7 0 -5
21 -16 48 -26 26 -10 55 -23 65 -28 9 -5 25 -13 35 -17 9 -5 32 -16 50 -25 19
-9 39 -17 45 -17 7 0 23 -9 37 -20 14 -11 31 -20 38 -20 8 0 28 -6 45 -14 18
-8 41 -17 52 -20 11 -3 -1 -3 -28 -1 -47 5 -172 55 -377 153 -58 27 -121 57
-140 65 -19 8 -52 22 -73 31 -22 10 -36 12 -32 7 3 -6 10 -11 15 -11 9 0 133
-57 295 -135 84 -40 193 -89 275 -122 l35 -14 -35 5 c-31 5 -32 4 -15 -6 27
-16 225 -24 225 -9 0 6 12 11 26 11 14 0 32 7 40 15 8 8 20 13 27 11 7 -1 9
-1 4 1 -14 8 4 22 20 16 9 -4 14 -2 12 3 -6 11 58 74 66 65 4 -3 5 -1 4 4 -1
6 10 36 24 69 34 73 34 87 1 23 -86 -166 -257 -201 -465 -97 -56 29 -292 163
-566 324 -62 36 -113 61 -113 56z"/>
<path d="M3380 1269 c0 -5 5 -7 10 -4 6 3 10 1 10 -4 0 -6 -10 -11 -22 -11
-22 -1 -23 -1 -4 -15 11 -8 25 -15 30 -14 6 0 5 3 -2 6 -10 4 -9 8 4 17 9 7
14 18 10 24 -9 15 -36 16 -36 1z"/>
<path d="M3430 1239 c-12 -22 -6 -39 15 -39 12 0 25 21 25 40 0 18 -30 18 -40
-1z m22 -6 c-6 -2 -10 -9 -6 -14 3 -5 0 -9 -5 -9 -12 0 -14 13 -4 23 3 4 11 7
17 6 6 0 5 -3 -2 -6z"/>
<path d="M3808 1243 c19 -7 14 -20 -10 -26 -12 -4 -19 -9 -15 -13 9 -10 59 25
52 36 -4 6 -14 10 -23 9 -11 0 -12 -3 -4 -6z"/>
<path d="M3856 1224 c7 -3 10 -14 7 -25 -4 -15 -8 -17 -19 -8 -9 7 -14 8 -14
1 0 -12 29 -24 41 -16 5 3 7 9 4 14 -3 5 -1 11 5 15 14 9 2 25 -18 24 -9 0
-12 -3 -6 -5z"/>
<path d="M3555 1190 c-4 -6 2 -10 12 -10 14 -1 13 -3 -6 -14 l-24 -13 21 -12
c13 -7 22 -8 22 -2 0 5 -6 12 -12 14 -8 3 -6 6 5 6 9 1 17 7 17 15 0 17 -27
29 -35 16z"/>
<path d="M3597 1149 c-3 -12 0 -22 8 -25 20 -8 35 4 35 27 0 26 -36 25 -43 -2z
m31 -1 c-2 -6 -10 -13 -16 -14 -7 -1 -8 0 -2 3 5 2 8 9 4 14 -3 5 0 9 6 9 7 0
10 -5 8 -12z"/>
<path d="M2807 1139 c7 -7 15 -10 18 -7 3 3 -2 9 -12 12 -14 6 -15 5 -6 -5z"/>
<path d="M2854 1116 c11 -9 24 -16 30 -16 12 0 7 5 -24 19 -24 11 -24 11 -6
-3z"/>
<path d="M3754 1102 c3 -5 0 -13 -6 -15 -9 -4 -10 -6 -1 -6 17 -1 25 16 12 25
-7 4 -9 3 -5 -4z"/>
<path d="M3976 1085 c-9 -26 -7 -32 5 -12 6 10 9 21 6 23 -2 3 -7 -2 -11 -11z"/>
<path d="M3780 1075 c-16 -19 -5 -47 17 -43 11 2 19 14 20 28 l3 25 -10 -24
c-8 -18 -14 -21 -22 -13 -8 8 -8 15 2 27 7 8 10 15 7 15 -2 0 -10 -7 -17 -15z"/>
<path d="M3720 1069 c0 -5 9 -9 20 -9 11 0 20 2 20 4 0 2 -9 6 -20 9 -11 3
-20 1 -20 -4z"/>
<path d="M5240 950 c0 -63 -2 -70 -20 -70 -17 0 -20 -7 -20 -40 0 -29 -4 -40
-15 -40 -11 0 -15 -11 -15 -40 0 -22 -4 -40 -9 -40 -5 0 -12 -36 -16 -80 -6
-69 -10 -80 -26 -80 -15 0 -19 -7 -19 -40 0 -22 -4 -40 -10 -40 -5 0 -10 -13
-10 -30 0 -23 -4 -30 -20 -30 -13 0 -20 -7 -20 -20 0 -13 -7 -20 -20 -20 -16
0 -20 -7 -20 -30 0 -23 -4 -30 -20 -30 -16 0 -20 -7 -20 -30 0 -23 -4 -30 -20
-30 -13 0 -20 -7 -20 -20 0 -13 -7 -20 -20 -20 -18 0 -20 -7 -20 -70 0 -53 -3
-70 -14 -70 -16 0 -26 -21 -26 -56 l0 -24 205 0 205 0 0 510 c0 281 -2 510 -5
510 -3 0 -5 -31 -5 -70z"/>
</g>
</svg>
